<svg width="16" height="26" viewBox="0 0 16 26" fill="none" xmlns="http://www.w3.org/2000/svg">
<path d="M0.917969 17.25H3.7513C3.7513 18.78 5.69214 20.0833 8.0013 20.0833C10.3105 20.0833 12.2513 18.78 12.2513 17.25C12.2513 15.6917 10.778 15.125 7.6613 14.3742C4.65797 13.6233 0.917969 12.6883 0.917969 8.75C0.917969 6.21417 3.00047 4.06083 5.8763 3.33833V0.25H10.1263V3.33833C13.0021 4.06083 15.0846 6.21417 15.0846 8.75H12.2513C12.2513 7.22 10.3105 5.91667 8.0013 5.91667C5.69214 5.91667 3.7513 7.22 3.7513 8.75C3.7513 10.3083 5.22464 10.875 8.3413 11.6258C11.3446 12.3767 15.0846 13.3117 15.0846 17.25C15.0846 19.7858 13.0021 21.9392 10.1263 22.6617V25.75H5.8763V22.6617C3.00047 21.9392 0.917969 19.7858 0.917969 17.25Z" fill="#A32CC4"/>
<defs>
<linearGradient id="paint0_linear_1735_2230" x1="8.0013" y1="0.25" x2="8.0013" y2="25.75" gradientUnits="userSpaceOnUse">
<stop stop-color="#439DEE"/>
<stop offset="1" stop-color="#1E78E9"/>
</linearGradient>
</defs>
</svg>
