<svg width="14" height="14" viewBox="0 0 14 14" fill="none" xmlns="http://www.w3.org/2000/svg">
<path d="M6.33203 9.00065H7.66536V10.334H6.33203V9.00065ZM6.33203 3.66732H7.66536V7.66732H6.33203V3.66732ZM6.9987 0.333984C3.31203 0.333984 0.332031 3.33398 0.332031 7.00065C0.332031 8.76876 1.03441 10.4645 2.28465 11.7147C2.90371 12.3338 3.63864 12.8248 4.44747 13.1598C5.25631 13.4949 6.12322 13.6673 6.9987 13.6673C8.76681 13.6673 10.4625 12.9649 11.7127 11.7147C12.963 10.4645 13.6654 8.76876 13.6654 7.00065C13.6654 6.12517 13.4929 5.25827 13.1579 4.44943C12.8229 3.64059 12.3318 2.90566 11.7127 2.28661C11.0937 1.66755 10.3588 1.17649 9.54992 0.841454C8.74108 0.506423 7.87418 0.333984 6.9987 0.333984ZM6.9987 12.334C5.58421 12.334 4.22766 11.7721 3.22746 10.7719C2.22727 9.77169 1.66536 8.41514 1.66536 7.00065C1.66536 5.58616 2.22727 4.22961 3.22746 3.22941C4.22766 2.22922 5.58421 1.66732 6.9987 1.66732C8.41319 1.66732 9.76974 2.22922 10.7699 3.22941C11.7701 4.22961 12.332 5.58616 12.332 7.00065C12.332 8.41514 11.7701 9.77169 10.7699 10.7719C9.76974 11.7721 8.41319 12.334 6.9987 12.334Z" fill="#E91F63"/>
</svg>
