<svg width="30" height="30" viewBox="0 0 30 30" fill="none" xmlns="http://www.w3.org/2000/svg">
<path d="M23.357 22.6345C22.9887 21.5012 21.9262 20.6654 20.6654 20.6654H19.2487V16.4154C19.2487 16.0396 19.0994 15.6793 18.8338 15.4136C18.5681 15.148 18.2078 14.9987 17.832 14.9987H9.33203V12.1654H12.1654C12.5411 12.1654 12.9014 12.0161 13.1671 11.7504C13.4328 11.4848 13.582 11.1244 13.582 10.7487V7.91537H16.4154C17.1668 7.91536 17.8875 7.61685 18.4188 7.0855C18.9502 6.55415 19.2487 5.83348 19.2487 5.08203V4.5012C23.3995 6.17286 26.332 10.2387 26.332 14.9987C26.332 17.9454 25.1987 20.6229 23.357 22.6345ZM13.582 26.2329C7.9862 25.5387 3.66536 20.7787 3.66536 14.9987C3.66536 14.1204 3.7787 13.2704 3.96286 12.4629L10.7487 19.2487V20.6654C10.7487 21.4168 11.0472 22.1375 11.5786 22.6688C12.1099 23.2002 12.8306 23.4987 13.582 23.4987V26.2329ZM14.9987 0.832031C13.1383 0.832031 11.2961 1.19846 9.57735 1.9104C7.85857 2.62235 6.29685 3.66586 4.98135 4.98135C2.32459 7.63812 0.832031 11.2415 0.832031 14.9987C0.832031 18.7559 2.32459 22.3593 4.98135 25.016C6.29685 26.3315 7.85857 27.3751 9.57735 28.087C11.2961 28.7989 13.1383 29.1654 14.9987 29.1654C18.7559 29.1654 22.3593 27.6728 25.016 25.016C27.6728 22.3593 29.1654 18.7559 29.1654 14.9987C29.1654 13.1383 28.7989 11.2961 28.087 9.57735C27.3751 7.85857 26.3315 6.29685 25.016 4.98135C23.7005 3.66586 22.1388 2.62235 20.42 1.9104C18.7013 1.19846 16.8591 0.832031 14.9987 0.832031Z" fill="url(#paint0_linear_1735_2508)"/>
<defs>
<linearGradient id="paint0_linear_1735_2508" x1="14.9987" y1="0.832031" x2="14.9987" y2="29.1654" gradientUnits="userSpaceOnUse">
<stop stop-color="#439DEE"/>
<stop offset="1" stop-color="#1E78E9"/>
</linearGradient>
</defs>
</svg>
