<svg width="32" height="32" viewBox="0 0 32 32" fill="none" xmlns="http://www.w3.org/2000/svg">
<path d="M16.0013 25.918C17.5596 25.918 18.8346 27.193 18.8346 28.7513C18.8346 30.3096 17.5596 31.5846 16.0013 31.5846C14.443 31.5846 13.168 30.3096 13.168 28.7513C13.168 27.193 14.443 25.918 16.0013 25.918ZM16.0013 0.417969C17.5596 0.417969 18.8346 1.69297 18.8346 3.2513C18.8346 4.80964 17.5596 6.08464 16.0013 6.08464C14.443 6.08464 13.168 4.80964 13.168 3.2513C13.168 1.69297 14.443 0.417969 16.0013 0.417969ZM7.5013 21.668C9.05964 21.668 10.3346 22.943 10.3346 24.5013C10.3346 26.0596 9.05964 27.3346 7.5013 27.3346C5.94297 27.3346 4.66797 26.0596 4.66797 24.5013C4.66797 22.943 5.94297 21.668 7.5013 21.668ZM3.2513 13.168C4.80964 13.168 6.08464 14.443 6.08464 16.0013C6.08464 17.5596 4.80964 18.8346 3.2513 18.8346C1.69297 18.8346 0.417969 17.5596 0.417969 16.0013C0.417969 14.443 1.69297 13.168 3.2513 13.168ZM7.5013 4.66797C9.05964 4.66797 10.3346 5.94297 10.3346 7.5013C10.3346 9.05964 9.05964 10.3346 7.5013 10.3346C5.94297 10.3346 4.66797 9.05964 4.66797 7.5013C4.66797 5.94297 5.94297 4.66797 7.5013 4.66797ZM24.5013 21.668C26.0596 21.668 27.3346 22.943 27.3346 24.5013C27.3346 26.0596 26.0596 27.3346 24.5013 27.3346C22.943 27.3346 21.668 26.0596 21.668 24.5013C21.668 22.943 22.943 21.668 24.5013 21.668ZM28.7513 13.168C30.3096 13.168 31.5846 14.443 31.5846 16.0013C31.5846 17.5596 30.3096 18.8346 28.7513 18.8346C27.193 18.8346 25.918 17.5596 25.918 16.0013C25.918 14.443 27.193 13.168 28.7513 13.168ZM24.5013 4.66797C26.0596 4.66797 27.3346 5.94297 27.3346 7.5013C27.3346 9.05964 26.0596 10.3346 24.5013 10.3346C22.943 10.3346 21.668 9.05964 21.668 7.5013C21.668 5.94297 22.943 4.66797 24.5013 4.66797Z" fill="url(#paint0_linear_1735_2512)"/>
<defs>
<linearGradient id="paint0_linear_1735_2512" x1="16.0013" y1="0.417969" x2="16.0013" y2="31.5846" gradientUnits="userSpaceOnUse">
<stop stop-color="#439DEE"/>
<stop offset="1" stop-color="#1E78E9"/>
</linearGradient>
</defs>
</svg>
